<svg width="48" height="48" viewBox="0 0 48 48" fill="none" xmlns="http://www.w3.org/2000/svg">
<rect width="48" height="48" rx="8" fill="#C4CEDD"/>
<path d="M35.8323 9H11.2645C9.86828 9 8.52923 9.57917 7.54194 10.6101C6.55465 11.6411 6 13.0393 6 14.4973V32.8215C6 34.2795 6.55465 35.6777 7.54194 36.7086C8.52923 37.7396 9.86828 38.3188 11.2645 38.3188H35.8323C37.2285 38.3188 38.5675 37.7396 39.5548 36.7086C40.5421 35.6777 41.0968 34.2795 41.0968 32.8215V14.4973C41.0968 13.0393 40.5421 11.6411 39.5548 10.6101C38.5675 9.57917 37.2285 9 35.8323 9V9ZM34.6565 12.6648L23.5484 21.3689L12.4403 12.6648H34.6565ZM35.8323 34.6539H11.2645C10.7991 34.6539 10.3528 34.4609 10.0237 34.1172C9.69456 33.7736 9.50968 33.3075 9.50968 32.8215V14.9554L22.4955 25.1253C22.7992 25.3632 23.1687 25.4918 23.5484 25.4918C23.9281 25.4918 24.2975 25.3632 24.6013 25.1253L37.5871 14.9554V32.8215C37.5871 33.3075 37.4022 33.7736 37.0731 34.1172C36.744 34.4609 36.2977 34.6539 35.8323 34.6539Z" fill="#171717"/>
</svg>
