<svg width="48" height="44" viewBox="0 0 48 44" fill="none" xmlns="http://www.w3.org/2000/svg">
<path d="M11.2814 34.5353C10.8813 34.4594 10.5613 34.3835 10.1613 34.2317C9.7612 34.0799 9.44116 34.004 9.12113 33.8523C8.40104 33.5487 7.76096 33.1693 7.12088 32.714C5.84072 31.8792 4.80059 30.7409 4.00049 29.3749C3.20039 28.0848 2.72034 26.5671 2.64033 25.1252C2.56032 24.3663 2.64033 23.6833 2.72034 22.9245C2.80035 22.545 2.88036 22.2415 2.96037 21.862C3.04037 21.4826 3.20039 21.1791 3.2804 20.7996L3.36041 21.862C3.36041 22.2415 3.44042 22.545 3.52043 22.9245C3.60044 23.6075 3.76046 24.2904 3.92048 24.8975C4.24052 26.1876 4.72058 27.4018 5.44067 28.5401C6.16076 29.6785 6.96086 30.7409 8.00099 31.7274C8.48105 32.1827 9.04112 32.6381 9.60118 33.0934C9.84121 33.3211 10.1613 33.5487 10.4813 33.7764L11.2814 34.5353ZM11.0414 37.2672C10.8013 37.419 10.4813 37.4949 10.1613 37.5708C9.84121 37.6466 9.60118 37.7225 9.28115 37.7225C8.72108 37.7984 8.081 37.8743 7.44092 37.7984C6.24077 37.7225 4.96061 37.419 3.92048 36.8878C2.80035 36.3566 1.84023 35.5218 1.20015 34.5353C0.880109 34.0799 0.560069 33.5487 0.32004 33.0175C0.24003 32.7898 0.16002 32.4863 0.0800098 32.1827C0.0800098 31.9551 0 31.7274 0 31.4239C0.24003 31.6515 0.400049 31.8792 0.560069 32.031C0.800099 32.2586 0.960119 32.4863 1.12014 32.6381C1.52019 33.0175 1.84023 33.3969 2.24028 33.7005C3.04038 34.3835 3.84047 34.9906 4.80059 35.4459C5.6807 35.9012 6.72083 36.2807 7.68095 36.5842C8.16101 36.736 8.72108 36.8119 9.28115 36.9637C9.52118 37.0395 9.84121 37.0395 10.0812 37.1154C10.4813 37.1913 10.7213 37.1913 11.0414 37.2672M29.1236 0.385886C29.5236 0.461774 29.8437 0.613549 30.2437 0.765324C30.6438 0.917099 30.9638 1.06887 31.2839 1.22065C32.0039 1.60009 32.644 1.97952 33.2841 2.43485C34.5643 3.3455 35.6044 4.5597 36.3245 5.92567C37.0446 7.29165 37.4446 8.8094 37.4446 10.2513C37.4446 11.0101 37.3646 11.6931 37.2046 12.452C37.1246 12.8314 37.0446 13.135 36.8845 13.5144C36.7245 13.8939 36.6445 14.1974 36.4845 14.501L36.4045 13.4385C36.4045 13.0591 36.4045 12.7555 36.3245 12.3761L36.0845 10.3271C35.8444 9.03706 35.3644 7.74697 34.7243 6.53277C34.0842 5.31857 33.2841 4.25615 32.324 3.26961C31.8439 2.7384 31.2839 2.28307 30.8038 1.75186C30.5638 1.5242 30.2437 1.29654 29.9237 1.06887L29.1236 0.385886ZM36.0845 0.0823364C36.4045 0.158224 36.6445 0.234111 36.8845 0.385886C37.1246 0.461774 37.4446 0.613549 37.6846 0.765324C38.1647 1.06887 38.6448 1.37242 39.1248 1.75186C40.0049 2.51074 40.725 3.42139 41.1251 4.48381C41.6051 5.54623 41.7652 6.68455 41.6051 7.82286C41.5251 8.35407 41.3651 8.88528 41.2051 9.4165C41.1251 9.64416 40.9651 9.94771 40.885 10.1754C40.725 10.403 40.645 10.6307 40.405 10.8584V10.0995V9.34061C40.405 8.8094 40.325 8.35407 40.325 7.89875C40.165 6.91221 40.0049 6.00156 39.6049 5.1668C39.2048 4.25615 38.7248 3.49727 38.1647 2.66251C37.8447 2.28307 37.5246 1.82775 37.2046 1.44831C37.0446 1.22065 36.8846 1.06887 36.6445 0.841211C36.4845 0.461774 36.2445 0.234111 36.0845 0.0823364" fill="#171717"/>
<path d="M6.4009 11.3896C4.8007 12.0726 4.24063 13.8939 4.96072 15.4116L15.042 35.37L20.6426 32.8657L10.5614 12.8315C9.84132 11.3137 8.00109 10.6307 6.4009 11.3896M32.8842 27.2501L38.8049 24.594L27.2835 1.82777C26.4834 0.310018 24.5631 -0.372969 22.8829 0.385906C21.2827 1.14478 20.5626 2.96608 21.3627 4.55972L32.8842 27.2501Z" fill="#FFDD67"/>
<path d="M22.963 0.310018C22.8029 0.385905 22.6429 0.461793 22.4829 0.613568C24.0031 0.23413 25.6033 0.917118 26.3234 2.28309L37.8448 25.0493L38.8849 24.594L27.3635 1.82777C26.5634 0.23413 24.6432 -0.448857 22.963 0.310018" fill="#EBA352"/>
<path d="M20.6425 32.7899L26.8033 29.982L15.0418 6.76048C14.2417 5.16684 12.1615 4.40797 10.4813 5.16684C8.80105 5.92572 8.08096 7.89879 8.88106 9.49243L20.6425 32.7899Z" fill="#FFDD67"/>
<path d="M10.481 5.24271C10.321 5.3186 10.161 5.39449 10.001 5.54626C11.5212 5.16683 13.2814 5.84981 14.0015 7.29168L21.2824 21.7862L23.0426 22.7727L15.0416 6.83635C14.2415 5.16683 12.2413 4.48384 10.481 5.24271" fill="#EBA352"/>
<path d="M25.8432 28.1607L32.004 25.3529L20.2425 2.13133C19.4424 0.537689 17.3621 -0.221187 15.6819 0.613576C14.0017 1.37245 13.2816 3.34553 14.0817 4.93916L25.8432 28.1607Z" fill="#FFDD67"/>
<path d="M15.6821 0.537697C15.5221 0.613585 15.3621 0.765359 15.202 0.841247C16.7222 0.46181 18.4824 1.1448 19.2025 2.58666L27.4436 18.9784L29.2038 19.9649L20.2427 2.13133C19.4426 0.46181 17.3623 -0.221178 15.6821 0.537697M6.40096 11.3896C6.24094 11.4655 6.08092 11.5414 5.9209 11.6932C7.36108 11.3137 8.88126 11.9967 9.52134 13.3627L15.5221 25.277L17.2823 26.2636L10.5615 12.9074C9.84138 11.3137 8.00116 10.6307 6.40096 11.3896" fill="#EBA352"/>
<path d="M47.0457 9.11297C44.8854 7.51934 41.365 9.26475 39.6047 14.7286C38.4046 18.523 38.2446 19.6613 35.6843 20.7996L34.2441 17.9918C34.2441 17.9918 11.5213 28.3884 12.4014 30.0579C12.4014 30.0579 15.1217 38.102 19.7623 41.8205C26.6431 47.4362 42.7251 41.441 43.4452 26.9465C43.8453 18.523 49.3659 10.8584 47.0457 9.11297" fill="#FFDD67"/>
<path d="M47.0459 9.11297C46.6459 8.80942 46.1658 8.65764 45.6858 8.58176C45.7658 8.65764 45.9258 8.65764 46.0058 8.73353C48.4061 10.4789 45.9258 14.501 44.5656 18.1436C43.4455 21.0273 42.4854 23.9869 42.6454 26.8706C43.2855 39.468 29.9238 45.4631 21.9229 43.1864C29.7638 46.2978 44.3256 40.3786 43.6855 27.2501C43.5255 24.3664 44.4056 21.5585 45.6058 18.523C46.8859 14.8804 49.3662 10.8584 47.0459 9.11297" fill="#EBA352"/>
<path d="M36.4044 20.4961C31.4438 21.0273 24.1629 27.7813 29.2835 35.1424C25.5231 27.7054 31.6838 22.6968 35.6043 20.9514C36.0044 20.6479 36.4044 20.4961 36.4044 20.4961" fill="#EBA352"/>
</svg>
