<svg width="48" height="48" viewBox="0 0 48 48" fill="none" xmlns="http://www.w3.org/2000/svg">
<rect width="48" height="48" rx="4" fill="url(#paint0_radial_153_149)"/>
<path d="M16.5312 33.3125C15.2188 33.3125 14.0417 33.1042 13 32.6875C11.9583 32.2604 11.0729 31.6719 10.3438 30.9219C9.625 30.1719 9.07292 29.3021 8.6875 28.3125C8.30208 27.3125 8.10938 26.25 8.10938 25.125V24.5C8.10938 23.2188 8.29167 22.0469 8.65625 20.9844C9.02083 19.9219 9.54167 19 10.2188 18.2188C10.9062 17.4375 11.7396 16.8385 12.7188 16.4219C13.6979 15.9948 14.8021 15.7812 16.0312 15.7812C17.2292 15.7812 18.2917 15.9792 19.2188 16.375C20.1458 16.7708 20.9219 17.3333 21.5469 18.0625C22.1823 18.7917 22.6615 19.6667 22.9844 20.6875C23.3073 21.6979 23.4688 22.8229 23.4688 24.0625V25.9375H10.0312V22.9375H19.0469V22.5938C19.0469 21.9688 18.9323 21.4115 18.7031 20.9219C18.4844 20.4219 18.151 20.026 17.7031 19.7344C17.2552 19.4427 16.6823 19.2969 15.9844 19.2969C15.3906 19.2969 14.8802 19.4271 14.4531 19.6875C14.026 19.9479 13.6771 20.3125 13.4062 20.7812C13.1458 21.25 12.9479 21.8021 12.8125 22.4375C12.6875 23.0625 12.625 23.75 12.625 24.5V25.125C12.625 25.8021 12.7188 26.4271 12.9062 27C13.1042 27.5729 13.3802 28.0677 13.7344 28.4844C14.099 28.901 14.5365 29.224 15.0469 29.4531C15.5677 29.6823 16.1562 29.7969 16.8125 29.7969C17.625 29.7969 18.3802 29.6406 19.0781 29.3281C19.7865 29.0052 20.3958 28.5208 20.9062 27.875L23.0938 30.25C22.7396 30.7604 22.2552 31.25 21.6406 31.7188C21.0365 32.1875 20.3073 32.5729 19.4531 32.875C18.599 33.1667 17.625 33.3125 16.5312 33.3125ZM29.0163 16.0938L31.8131 21.2344L34.6881 16.0938H39.485L34.7038 24.3594L39.7038 33H34.8913L31.8444 27.5625L28.7975 33H23.985L28.985 24.3594L24.2038 16.0938H29.0163Z" fill="#171717"/>
<defs>
<radialGradient id="paint0_radial_153_149" cx="0" cy="0" r="1" gradientUnits="userSpaceOnUse" gradientTransform="translate(7.5 10) rotate(33.1113) scale(54.9181)">
<stop stop-color="#ABB7C9"/>
<stop offset="1" stop-color="#ABB7C9" stop-opacity="0"/>
</radialGradient>
</defs>
</svg>
