<svg width="22" height="23" viewBox="0 0 22 23" fill="none" xmlns="http://www.w3.org/2000/svg">
<path d="M5.09375 7.15039V23H0.860352V7.15039H5.09375ZM0.59668 3.01953C0.59668 2.4043 0.811523 1.89648 1.24121 1.49609C1.6709 1.0957 2.24707 0.895508 2.96973 0.895508C3.68262 0.895508 4.25391 1.0957 4.68359 1.49609C5.12305 1.89648 5.34277 2.4043 5.34277 3.01953C5.34277 3.63477 5.12305 4.14258 4.68359 4.54297C4.25391 4.94336 3.68262 5.14355 2.96973 5.14355C2.24707 5.14355 1.6709 4.94336 1.24121 4.54297C0.811523 4.14258 0.59668 3.63477 0.59668 3.01953ZM12.1109 10.5342V23H7.89219V7.15039H11.8473L12.1109 10.5342ZM11.4957 14.5186H10.3531C10.3531 13.3467 10.5045 12.292 10.8072 11.3545C11.11 10.4072 11.5348 9.60156 12.0816 8.9375C12.6285 8.26367 13.2779 7.75098 14.0299 7.39941C14.7916 7.03809 15.6412 6.85742 16.5787 6.85742C17.3209 6.85742 17.9996 6.96484 18.6148 7.17969C19.2301 7.39453 19.7574 7.73633 20.1969 8.20508C20.6461 8.67383 20.9879 9.29395 21.2223 10.0654C21.4664 10.8369 21.5885 11.7793 21.5885 12.8926V23H17.3404V12.8779C17.3404 12.1748 17.2428 11.6279 17.0475 11.2373C16.8521 10.8467 16.5641 10.5732 16.1832 10.417C15.8121 10.251 15.3531 10.168 14.8063 10.168C14.2398 10.168 13.7467 10.2803 13.3268 10.5049C12.9166 10.7295 12.5748 11.042 12.3014 11.4424C12.0377 11.833 11.8375 12.292 11.7008 12.8193C11.5641 13.3467 11.4957 13.9131 11.4957 14.5186Z" fill="#171717"/>
</svg>
