<svg width="28" height="20" viewBox="0 0 28 20" fill="none" xmlns="http://www.w3.org/2000/svg">
<path d="M0.762832 2.30353L9.13629 9.65493L0.518616 17.0808C0.236047 17.3259 0.0805331 17.6327 0.0783272 17.9494C0.0787517 18.1516 0.141671 18.351 0.262609 18.5336C0.383548 18.7161 0.559536 18.8774 0.778058 19.0058C0.97367 19.1207 1.19931 19.207 1.44207 19.2597C1.68482 19.3123 1.93991 19.3303 2.19273 19.3126C2.44555 19.2949 2.69112 19.2418 2.9154 19.1564C3.13967 19.071 3.33824 18.955 3.49972 18.815L13.1176 10.518C13.4005 10.2706 13.5544 9.96113 13.553 9.64247C13.5516 9.3238 13.395 9.0157 13.11 8.77077L3.74799 0.556935C3.58804 0.416303 3.39056 0.299668 3.16691 0.213733C2.94325 0.127797 2.69784 0.0742562 2.44476 0.0561869C2.19169 0.0381177 1.93594 0.0558766 1.69223 0.108443C1.44852 0.161009 1.22165 0.247346 1.02465 0.362491C0.828226 0.477872 0.665592 0.619683 0.546077 0.77979C0.426561 0.939896 0.352518 1.11515 0.328192 1.29549C0.303867 1.47583 0.329741 1.6577 0.404327 1.83069C0.478913 2.00367 0.600745 2.16436 0.762832 2.30353V2.30353Z" fill="#FAFAFA"/>
<path d="M26.7128 10.5772C26.9957 10.3298 27.1496 10.0203 27.1482 9.70167C27.1468 9.38301 26.9902 9.07491 26.7052 8.82998L17.3432 0.616139C17.1833 0.475507 16.9858 0.358872 16.7621 0.272937C16.5385 0.187001 16.2931 0.13346 16.04 0.115391C15.7869 0.0973218 15.5312 0.115081 15.2874 0.167647C15.0437 0.220213 14.8169 0.30655 14.6199 0.421695C14.422 0.536097 14.2577 0.677165 14.1364 0.83679C14.0152 0.996415 13.9393 1.17145 13.9132 1.35183C13.887 1.53222 13.9112 1.71439 13.9842 1.88789C14.0573 2.06139 14.1777 2.22279 14.3387 2.36281L22.7315 9.71414L14.1138 17.14C13.8313 17.3851 13.6757 17.6919 13.6735 18.0087C13.674 18.2108 13.7369 18.4102 13.8578 18.5928C13.9788 18.7753 14.1548 18.9366 14.3733 19.065C14.5689 19.1799 14.7945 19.2662 15.0373 19.3189C15.28 19.3715 15.5351 19.3895 15.7879 19.3718C16.0408 19.3541 16.2863 19.301 16.5106 19.2156C16.7349 19.1302 16.9335 19.0142 17.0949 18.8742L26.7128 10.5772Z" fill="#FAFAFA"/>
</svg>
