<svg width="48" height="48" viewBox="0 0 48 48" fill="none" xmlns="http://www.w3.org/2000/svg">
<rect width="48" height="48" rx="8" fill="#C4CEDD"/>
<path d="M17.5156 17.4521V37H12.2944V17.4521H17.5156ZM11.9692 12.3574C11.9692 11.5986 12.2342 10.9723 12.7642 10.4785C13.2941 9.9847 14.0047 9.73779 14.896 9.73779C15.7752 9.73779 16.4798 9.9847 17.0098 10.4785C17.5518 10.9723 17.8228 11.5986 17.8228 12.3574C17.8228 13.1162 17.5518 13.7425 17.0098 14.2363C16.4798 14.7301 15.7752 14.9771 14.896 14.9771C14.0047 14.9771 13.2941 14.7301 12.7642 14.2363C12.2342 13.7425 11.9692 13.1162 11.9692 12.3574ZM26.1702 21.6255V37H20.967V17.4521H25.845L26.1702 21.6255ZM25.4114 26.5396H24.0022C24.0022 25.0942 24.1889 23.7935 24.5622 22.6372C24.9356 21.4689 25.4595 20.4753 26.134 19.6562C26.8085 18.8252 27.6094 18.1929 28.5369 17.7593C29.4763 17.3136 30.5242 17.0908 31.6804 17.0908C32.5958 17.0908 33.4329 17.2233 34.1916 17.4883C34.9504 17.7533 35.6008 18.1748 36.1428 18.7529C36.6968 19.3311 37.1184 20.0959 37.4075 21.0474C37.7086 21.9989 37.8591 23.1611 37.8591 24.5342V37H32.6199V24.5161C32.6199 23.6489 32.4994 22.9744 32.2585 22.4927C32.0176 22.0109 31.6623 21.6737 31.1926 21.481C30.7349 21.2762 30.1689 21.1738 29.4944 21.1738C28.7958 21.1738 28.1876 21.3123 27.6697 21.5894C27.1638 21.8664 26.7423 22.2518 26.405 22.7456C26.0798 23.2274 25.8329 23.7935 25.6643 24.4438C25.4957 25.0942 25.4114 25.7928 25.4114 26.5396Z" fill="#171717"/>
</svg>
