<svg width="24" height="24" viewBox="0 0 24 24" fill="none" xmlns="http://www.w3.org/2000/svg">
<path d="M2.72288 11.0125L11.6729 3.81248L20.6229 11.2791C20.9183 11.524 21.2892 11.6594 21.6729 11.6625C21.9177 11.6629 22.1597 11.6093 22.3815 11.5056C22.6033 11.4019 22.7995 11.2506 22.9562 11.0625C23.0966 10.8941 23.2023 10.6996 23.2674 10.4903C23.3324 10.2809 23.3556 10.0608 23.3354 9.84253C23.3153 9.62423 23.2523 9.41205 23.1501 9.21814C23.0478 9.02423 22.9083 8.85239 22.7395 8.71248L12.7395 0.379147C12.4413 0.13401 12.0673 0 11.6812 0C11.2952 0 10.9211 0.13401 10.6229 0.379147L0.622878 8.42915C0.451667 8.56669 0.309326 8.7367 0.204036 8.92943C0.098746 9.12216 0.0325839 9.33379 0.00935191 9.55218C-0.0138801 9.77056 0.0062763 9.99138 0.0686625 10.2019C0.131049 10.4125 0.234434 10.6087 0.372877 10.7791C0.511608 10.9491 0.682538 11.09 0.875858 11.1938C1.06918 11.2976 1.28109 11.3622 1.49942 11.3838C1.71776 11.4055 1.93823 11.3839 2.14818 11.3201C2.35813 11.2564 2.55343 11.1519 2.72288 11.0125V11.0125Z" fill="#171717"/>
<path d="M12.7395 12.0458C12.4413 11.8006 12.0672 11.6666 11.6812 11.6666C11.2951 11.6666 10.9211 11.8006 10.6228 12.0458L0.622847 20.0958C0.451636 20.2333 0.309295 20.4033 0.204005 20.5961C0.0987155 20.7888 0.0325534 21.0004 0.00932139 21.2188C-0.0139106 21.4372 0.00624578 21.658 0.068632 21.8686C0.131018 22.0791 0.234404 22.2753 0.372847 22.4458C0.510385 22.617 0.680404 22.7593 0.873132 22.8646C1.06586 22.9699 1.2775 23.0361 1.49588 23.0593C1.71426 23.0825 1.93508 23.0624 2.14564 23C2.35621 22.9376 2.55237 22.8342 2.72285 22.6958L11.6728 15.4791L20.6229 22.9458C20.9183 23.1906 21.2892 23.326 21.6728 23.3291C21.9177 23.3295 22.1596 23.2759 22.3814 23.1722C22.6032 23.0685 22.7995 22.9172 22.9562 22.7291C23.0965 22.5607 23.2023 22.3662 23.2673 22.1569C23.3324 21.9476 23.3555 21.7274 23.3354 21.5092C23.3153 21.2909 23.2523 21.0787 23.15 20.8848C23.0478 20.6909 22.9083 20.519 22.7395 20.3791L12.7395 12.0458Z" fill="#171717"/>
</svg>
