<svg width="48" height="48" viewBox="0 0 48 48" fill="none" xmlns="http://www.w3.org/2000/svg">
<rect width="48" height="48" rx="8" fill="#ABB7C9"/>
<path d="M15.0502 23.3498L24.0002 16.1498L32.9502 23.6164C33.2457 23.8613 33.6166 23.9967 34.0002 23.9998C34.2451 24.0002 34.487 23.9466 34.7088 23.8429C34.9306 23.7392 35.1269 23.5879 35.2836 23.3998C35.4239 23.2313 35.5296 23.0369 35.5947 22.8276C35.6598 22.6182 35.6829 22.3981 35.6628 22.1798C35.6427 21.9615 35.5797 21.7493 35.4774 21.5554C35.3752 21.3615 35.2357 21.1897 35.0669 21.0498L25.0669 12.7164C24.7687 12.4713 24.3946 12.3373 24.0086 12.3373C23.6225 12.3373 23.2485 12.4713 22.9502 12.7164L12.9502 20.7664C12.779 20.904 12.6367 21.074 12.5314 21.2667C12.4261 21.4594 12.3599 21.6711 12.3367 21.8895C12.3135 22.1078 12.3336 22.3287 12.396 22.5392C12.4584 22.7498 12.5618 22.9459 12.7002 23.1164C12.839 23.2864 13.0099 23.4273 13.2032 23.5311C13.3965 23.6349 13.6084 23.6994 13.8268 23.7211C14.0451 23.7428 14.2656 23.7212 14.4755 23.6574C14.6855 23.5937 14.8808 23.4891 15.0502 23.3498V23.3498Z" fill="#171717"/>
<path d="M25.0669 24.3831C24.7687 24.1379 24.3946 24.0039 24.0085 24.0039C23.6225 24.0039 23.2484 24.1379 22.9502 24.3831L12.9502 32.4331C12.779 32.5706 12.6367 32.7406 12.5314 32.9333C12.4261 33.1261 12.3599 33.3377 12.3367 33.5561C12.3135 33.7745 12.3336 33.9953 12.396 34.2058C12.4584 34.4164 12.5618 34.6126 12.7002 34.7831C12.8377 34.9543 13.0078 35.0966 13.2005 35.2019C13.3932 35.3072 13.6049 35.3733 13.8232 35.3966C14.0416 35.4198 14.2624 35.3997 14.473 35.3373C14.6836 35.2749 14.8797 35.1715 15.0502 35.0331L24.0002 27.8164L32.9502 35.2831C33.2457 35.5279 33.6165 35.6633 34.0002 35.6664C34.2451 35.6668 34.487 35.6132 34.7088 35.5095C34.9306 35.4058 35.1268 35.2545 35.2835 35.0664C35.4239 34.898 35.5296 34.7035 35.5947 34.4942C35.6598 34.2848 35.6829 34.0647 35.6628 33.8464C35.6426 33.6281 35.5797 33.416 35.4774 33.222C35.3751 33.0281 35.2356 32.8563 35.0669 32.7164L25.0669 24.3831Z" fill="#171717"/>
</svg>
