<svg width="128" height="54" viewBox="0 0 128 54" fill="none" xmlns="http://www.w3.org/2000/svg">
<rect width="128" height="54" rx="24" fill="#73A1AB"/>
<path d="M23.7422 30.002L26.4961 21.623H29.2207L24.9922 33H23.0977L23.7422 30.002ZM20.7637 21.623L23.4688 29.9727L24.1523 33H22.2383L18.0293 21.623H20.7637ZM33.4781 21.623V33H30.8902V21.623H33.4781ZM44.4348 30.9688V33H37.9113V30.9688H44.4348ZM38.7805 21.623V33H36.1926V21.623H38.7805ZM43.5949 26.1055V28.1367H37.9113V26.1055H43.5949ZM44.4348 21.623V23.6641H37.9113V21.623H44.4348ZM49.2391 31.3691L51.573 21.623H52.9793L53.2234 23.332L50.8016 33H49.327L49.2391 31.3691ZM48.0477 21.623L49.9617 31.291L49.825 33H48.2332L45.5379 21.623H48.0477ZM55.4793 31.2812L57.3934 21.623H59.8836L57.198 33H55.616L55.4793 31.2812ZM53.8582 21.623L56.2117 31.3789L56.1141 33H54.6395L52.1883 23.332L52.452 21.623H53.8582Z" fill="#FAFAFA"/>
<path d="M75.1666 28.25H96.9099L90.2549 33.7C90.1008 33.8264 89.9848 33.9723 89.9134 34.1292C89.8419 34.2862 89.8166 34.4512 89.8387 34.6149C89.8834 34.9454 90.1189 35.2503 90.4932 35.4625C90.8676 35.6747 91.3503 35.7768 91.8351 35.7463C92.3199 35.7158 92.7671 35.5553 93.0783 35.3L102.245 27.8C102.307 27.7403 102.362 27.6777 102.41 27.6125C102.41 27.55 102.502 27.5125 102.538 27.45C102.621 27.3067 102.665 27.1541 102.667 27C102.665 26.8459 102.621 26.6933 102.538 26.55C102.538 26.4875 102.447 26.45 102.41 26.3875C102.362 26.3223 102.307 26.2597 102.245 26.2L93.0783 18.7C92.9059 18.5589 92.69 18.4454 92.446 18.3676C92.202 18.2899 91.9359 18.2497 91.6666 18.25C91.2382 18.2494 90.8231 18.3512 90.4932 18.5375C90.3076 18.6424 90.1542 18.7713 90.0417 18.9167C89.9292 19.0622 89.8599 19.2213 89.8378 19.385C89.8156 19.5488 89.8411 19.7138 89.9127 19.8709C89.9842 20.0279 90.1005 20.1737 90.2549 20.3L96.9099 25.75H75.1666C74.6804 25.75 74.214 25.8817 73.8702 26.1161C73.5264 26.3505 73.3333 26.6685 73.3333 27C73.3333 27.3315 73.5264 27.6495 73.8702 27.8839C74.214 28.1183 74.6804 28.25 75.1666 28.25Z" fill="#FAFAFA"/>
</svg>
